HIERARCHY
ROOT Hips
{
  OFFSET 3.68255 88.3911 -111.886
  CHANNELS 6 Xposition Yposition Zposition Zrotation Xrotation Yrotation
  JOINT RightUpLeg
  {
    OFFSET -8.9458 -8.66707 0.101652
    CHANNELS 3 Zrotation Xrotation Yrotation
    JOINT RightLeg
    {
      OFFSET 0 -44.4227 1.3727
      CHANNELS 3 Zrotation Xrotation Yrotation
      JOINT RightFoot
      {
        OFFSET 0.253549 -42.0924 -1.46059
        CHANNELS 3 Zrotation Xrotation Yrotation
        JOINT RightToes
        {
          OFFSET 0.04 -4.41509 8.4991
          CHANNELS 3 Zrotation Xrotation Yrotation
          End Site
          {
            OFFSET -0.08 -0.137448 9.77979
          }
        }
      }
    }
  }
  JOINT Spine
  {
    OFFSET 0 11.8905 0
    CHANNELS 3 Zrotation Xrotation Yrotation
    JOINT Spine1
    {
      OFFSET 0 25.6574 0.127663
      CHANNELS 3 Zrotation Xrotation Yrotation
      JOINT HEad
      {
        OFFSET 0 8.73416 0.011341
        CHANNELS 3 Zrotation Xrotation Yrotation
        End Site
        {
          OFFSET -0.29 12.7742 2.51395
        }
      }
      JOINT LeftShoulder1
      {
        OFFSET 8.99 -0.362252 -0.22
        CHANNELS 3 Zrotation Xrotation Yrotation
        JOINT LeftArm
        {
          OFFSET 10.2827 -0.00338 0.322123
          CHANNELS 3 Zrotation Xrotation Yrotation
          JOINT LeftForeArm
          {
            OFFSET 32.7669 0.099144 -1.42434
            CHANNELS 3 Zrotation Xrotation Yrotation
            JOINT LeftHand
            {
              OFFSET 27.5643 0.085362 1.02216
              CHANNELS 3 Zrotation Xrotation Yrotation
              End Site
              {
                OFFSET 16.7443 -0.6 1.50291
              }
            }
          }
        }
      }
      JOINT RightShoulder
      {
        OFFSET -8.99 -0.362252 -0.22
        CHANNELS 3 Zrotation Xrotation Yrotation
        JOINT RightArm
        {
          OFFSET -10.2827 -0.00338 0.322123
          CHANNELS 3 Zrotation Xrotation Yrotation
          JOINT RightForeArm
          {
            OFFSET -32.8971 0.099144 -1.42434
            CHANNELS 3 Zrotation Xrotation Yrotation
            JOINT RightHand
            {
              OFFSET -27.4921 0.085362 1.02216
              CHANNELS 3 Zrotation Xrotation Yrotation
              End Site
              {
                OFFSET -16.6312 -0.6 1.50291
              }
            }
          }
        }
      }
    }
  }
  JOINT LeftUpLeg
  {
    OFFSET 8.9458 -8.66707 0.101652
    CHANNELS 3 Zrotation Xrotation Yrotation
    JOINT LeftLeg
    {
      OFFSET 0 -44.4227 1.3727
      CHANNELS 3 Zrotation Xrotation Yrotation
      JOINT LeftFoot
      {
        OFFSET -0.253549 -42.0924 -1.46059
        CHANNELS 3 Zrotation Xrotation Yrotation
        JOINT LeftToes
        {
          OFFSET -0.04 -4.41509 8.4991
          CHANNELS 3 Zrotation Xrotation Yrotation
          End Site
          {
            OFFSET 0.08 -0.047448 9.77979
          }
        }
      }
    }
  }
}
MOTION
Frames:	19
Frame Time:	0.0166667
43.3305 88.0808 -124.182 7.04689 -8.68956 37.2554 -21.1162 -31.5273 4.17709 0.453378 39.5311 7.76982 12.5264 20.1591 -2.83416 0.0462048 0.000533403 0.662642 2.77352 8.30491 -2.30275 -0.353597 16.0734 -3.78548 8.73025 -5.43671 -16.8133 -0 0 9.54166e-015 -95.6565 -23.2453 -45.0899 -47.7119 65.7811 -85.193 7.21815 19.4659 -2.26649 23.23 -3.57207 -16.4866 113.642 -50.0436 83.7045 -9.82859 59.9841 148.393 -17.0249 20.2941 -7.81693 23.3849 -17.6485 -8.40407 -19.2733 54.1919 14.3039 -15.2547 34.4267 5.96202 -1.41483e-009 1.56094e-007 -4.88993e-009 
43.6678 87.4794 -123.271 7.23367 -9.28264 37.3282 -20.7015 -31.2262 4.46635 0.567975 40.6141 6.59502 12.3136 23.2134 -3.10411 0.0462048 0.000533403 0.662642 3.06949 8.38262 -2.55214 0.0815134 16.187 -4.27817 9.28459 -4.70806 -16.4574 7.95139e-016 3.18055e-015 -0 -97.6071 -24.2761 -47.1058 -49.3191 66.6706 -84.527 7.21815 19.4659 -2.26649 23.1041 -3.54241 -16.4377 114.452 -47.4716 85.5945 -10.7276 58.4502 149.41 -16.4245 20.3562 -8.43224 22.7327 -17.5288 -8.72796 -19.7716 56.4732 17.1317 -12.8974 32.7969 4.81785 -1.41483e-009 1.56094e-007 -4.88993e-009 
44.0843 86.8645 -122.686 7.32579 -9.87577 37.0924 -20.3434 -31.1189 4.69743 0.483103 41.5867 5.922 12.4712 25.8062 -3.38812 0.0462048 0.000533403 0.662642 3.29837 8.47822 -2.77333 0.494474 16.35 -4.71203 9.81038 -4.36346 -16.0883 1.59028e-015 1.59028e-015 3.18055e-015 -99.3085 -24.8951 -48.8218 -50.5185 67.3703 -84.104 7.21815 19.4659 -2.26649 23.0372 -3.48955 -16.265 114.608 -45.226 86.5552 -11.8024 56.999 150.746 -15.6593 20.4282 -9.22955 22.2347 -17.5425 -9.17172 -20.5248 58.7423 19.7017 -11.1929 31.8299 4.00213 -1.41483e-009 1.56094e-007 -4.88993e-009 
44.5599 86.3019 -122.431 7.35498 -10.4329 36.5136 -20.0081 -31.1803 4.85312 0.191082 42.3023 5.94143 12.6901 27.6725 -3.59537 0.0462048 0.000533403 0.662642 3.47076 8.58279 -2.93815 0.82659 16.5351 -5.03189 10.2837 -4.26238 -15.7223 -1.76556e-031 -3.18055e-015 -3.18055e-015 -100.52 -25.0807 -49.9705 -51.0755 67.8126 -84.08 7.21815 19.4659 -2.26649 22.9892 -3.39652 -15.9226 114.218 -43.5788 86.6662 -12.8652 55.793 152.122 -14.8067 20.4945 -10.1002 21.9436 -17.6315 -9.72074 -21.6975 60.6761 21.705 -10.4141 31.7709 3.59096 -1.41483e-009 1.56094e-007 -4.88994e-009 
45.0712 85.8395 -122.481 7.35093 -10.9382 35.6317 -19.6674 -31.379 4.9723 -0.252942 42.7533 6.60959 12.7594 28.673 -3.65286 0.0462048 0.000533403 0.662642 3.574 8.67563 -3.03783 1.03495 16.7008 -5.22453 10.6943 -4.26338 -15.3643 1.76556e-031 -3.18055e-015 3.18055e-015 -101.105 -24.8418 -50.4099 -50.8376 67.9424 -84.5402 7.21815 19.4659 -2.26649 22.9366 -3.26532 -15.4295 113.228 -42.6527 85.8873 -13.7597 54.9039 153.25 -13.8477 20.545 -10.9929 21.8712 -17.772 -10.2617 -23.2378 62.1439 23.0191 -10.498 32.4958 3.53833 -1.41483e-009 1.56094e-007 -4.88994e-009 
45.5961 85.5079 -122.793 7.32814 -11.3932 34.5501 -19.3023 -31.666 5.13024 -0.7509 43.0159 7.73654 12.6051 28.7143 -3.53051 0.0462048 0.000533403 0.662642 3.57911 8.73408 -3.08005 1.10947 16.8096 -5.3141 11.0409 -4.26686 -15.0148 7.95139e-016 0 -3.18055e-015 -101.098 -24.2177 -50.185 -49.8638 67.7409 -85.3965 7.21815 19.4659 -2.26649 22.8847 -3.11802 -14.8696 111.518 -42.4039 84.1447 -14.3764 54.3322 153.888 -12.7356 20.5711 -11.8766 22.0041 -17.969 -10.6359 -24.9135 63.1595 23.7413 -11.0576 33.5528 3.68618 -1.41483e-009 1.56094e-007 -4.88994e-009 
46.1148 85.3115 -123.313 7.28744 -11.8156 33.4025 -18.8976 -31.9743 5.39164 -1.22803 43.1817 9.0928 12.2561 27.8055 -3.24808 0.0462048 0.000533403 0.662642 3.47066 8.74705 -3.0848 1.0679 16.8478 -5.34668 11.338 -4.22313 -14.6682 -5.29669e-031 -3.18055e-015 -9.54166e-015 -100.706 -23.2921 -49.5197 -48.4916 67.2593 -86.345 7.21815 19.4659 -2.26649 22.8665 -2.98781 -14.3593 109.033 -42.6535 81.4374 -14.6607 54.056 153.893 -11.4726 20.566 -12.7084 22.3361 -18.2394 -10.738 -26.5271 63.782 24.217 -11.4596 34.3856 3.76351 -1.41483e-009 1.56094e-007 -4.88994e-009 
46.6089 85.221 -123.989 7.2265 -12.2365 32.3133 -18.4401 -32.2306 5.77043 -1.6842 43.2981 10.4869 11.8119 26.1474 -2.86939 0.0462048 0.000533403 0.662642 3.26097 8.72239 -3.07762 0.936808 16.8337 -5.36988 11.6174 -4.11846 -14.3111 -0 -1.59028e-015 -0 -100.224 -22.1919 -48.7497 -47.2321 66.6294 -86.9651 7.21815 19.4659 -2.26649 22.9273 -2.9045 -13.9995 105.922 -43.1875 77.9386 -14.627 54.077 153.288 -10.1303 20.5312 -13.455 22.8731 -18.5878 -10.5804 -28.0707 64.0501 24.9148 -11.0853 34.5164 3.48204 -1.41484e-009 1.56094e-007 -4.88993e-009 
47.0621 85.1766 -124.779 7.14409 -12.6931 31.3666 -17.917 -32.3781 6.22829 -2.18374 43.3551 11.7991 11.4039 24.1313 -2.47705 0.0462048 0.000533403 0.662642 2.98093 8.68253 -3.08094 0.736149 16.8078 -5.41696 11.9178 -3.95356 -13.9271 -7.95139e-016 1.59028e-015 -0 -99.9187 -21.0489 -48.2331 -46.5534 66.0265 -86.8947 7.21815 19.4659 -2.26649 23.103 -2.88307 -13.8358 102.575 -43.8869 74.016 -14.3815 54.408 152.308 -8.79955 20.4777 -14.1535 23.6116 -18.9813 -10.2796 -29.6658 63.9909 26.1501 -9.70481 33.6073 2.72886 -1.41484e-009 1.56094e-007 -4.88993e-009 
47.4644 85.0996 -125.651 7.03152 -13.22 30.5984 -17.311 -32.4053 6.71061 -2.79176 43.3256 12.9659 11.1368 22.2295 -2.13862 0.0462048 0.000533403 0.662642 2.66862 8.6527 -3.1096 0.477489 16.8112 -5.50323 12.2688 -3.72645 -13.5053 7.95139e-016 1.59028e-015 -0 -99.9511 -19.9314 -48.2796 -46.7109 65.5888 -85.9298 7.21815 19.4659 -2.26649 23.4059 -2.92037 -13.849 99.5011 -44.8038 70.1165 -14.1337 55.0077 151.378 -7.51951 20.4187 -14.9442 24.5196 -19.3515 -9.99191 -31.3803 63.6712 27.8702 -7.67188 31.5428 1.68052 -1.41483e-009 1.56094e-007 -4.88994e-009 
47.8154 84.9075 -126.583 6.86528 -13.8414 30.0141 -16.608 -32.3532 7.18913 -3.49897 43.2172 13.9245 11.0416 20.8493 -1.88873 0.0462048 0.000533403 0.662642 2.36356 8.65017 -3.17321 0.169881 16.8677 -5.63665 12.6829 -3.42537 -13.0464 3.97569e-016 1.59028e-015 -0 -100.338 -18.7847 -49.1104 -47.6632 65.3367 -84.0397 7.21815 19.4659 -2.26649 23.8264 -3.00114 -13.9781 97.1287 -46.1162 66.6016 -14.1678 55.7377 151.021 -6.26873 20.358 -16.0048 25.5435 -19.6315 -9.84371 -33.1206 63.2268 29.7028 -5.68217 28.5892 0.666768 -1.41483e-009 1.56094e-007 -4.88994e-009 
48.1186 84.5382 -127.555 6.61536 -14.5651 29.6159 -15.8181 -32.2858 7.68128 -4.18566 43.0837 14.5631 11.0699 20.2195 -1.73164 0.0462048 0.000533403 0.662642 2.09413 8.68037 -3.28205 -0.177406 16.9801 -5.83442 13.1652 -3.02974 -12.5591 0 0 -6.36111e-015 -100.932 -17.4142 -50.8362 -49.0057 65.1292 -81.3931 7.21815 19.4659 -2.26649 24.3469 -3.10931 -14.1631 95.7033 -48.0002 63.6747 -14.7235 56.4003 151.657 -5.04893 20.2912 -17.4097 26.6256 -19.8083 -9.88213 -34.686 62.8421 31.2145 -4.27952 25.3985 -0.0954741 -1.41482e-009 1.56094e-007 -4.88993e-009 
48.372 83.9777 -128.549 6.26605 -15.379 29.4193 -14.9929 -32.2478 8.23246 -4.65656 42.9907 14.731 11.1387 20.3426 -1.65201 0.0462048 0.000533403 0.662642 1.85982 8.74006 -3.45046 -0.558138 17.1406 -6.13274 13.7271 -2.51556 -12.0484 7.95139e-016 0 -0 -101.41 -15.5346 -53.4541 -49.9326 64.6815 -78.4126 7.21815 19.4659 -2.26649 24.954 -3.23836 -14.3802 95.3037 -50.5174 61.425 -15.824 56.852 153.359 -4.0239 20.2245 -19.0041 27.7146 -19.9453 -10.0538 -35.8921 62.6941 32.1329 -3.59071 22.714 -0.593593 -1.41483e-009 1.56094e-007 -4.88994e-009 
48.5632 83.2687 -129.549 5.82662 -16.2504 29.4478 -14.2172 -32.2494 8.8719 -4.73461 42.9804 14.3259 11.1977 21.0039 -1.62563 0.0462048 0.000533403 0.662642 1.63472 8.82426 -3.69558 -0.969342 17.3439 -6.58089 14.3863 -1.86144 -11.5017 4.41391e-032 -7.95139e-016 3.18055e-015 -101.279 -12.9009 -56.8702 -49.4226 63.6449 -75.6653 7.21815 19.4659 -2.26649 25.6362 -3.39477 -14.6537 95.9071 -53.569 59.9042 -17.2054 57.1327 155.74 -3.61135 20.2077 -20.386 28.7784 -20.1519 -10.2201 -36.6385 62.8875 32.4025 -3.43489 21.037 -0.911589 -1.41483e-009 1.56094e-007 -4.88993e-009 
48.6799 82.4911 -130.539 5.32255 -17.1283 29.7068 -13.5768 -32.2915 9.576 -4.35514 43.0632 13.3978 11.278 21.8371 -1.63179 0.0462048 0.000533403 0.662642 1.39396 8.93107 -4.03063 -1.40341 17.5933 -7.21962 15.1425 -1.05688 -10.8842 3.97569e-016 0 3.18055e-015 -99.9853 -9.4944 -60.9522 -46.8012 61.7261 -73.4576 7.21815 19.4659 -2.26649 26.3697 -3.5932 -15.0391 97.4064 -56.9048 59.1415 -18.4682 57.5034 158.11 -4.38998 20.3301 -21.0244 29.8184 -20.5309 -10.203 -36.8948 63.4168 32.119 -3.55524 20.5172 -1.12429 -1.41483e-009 1.56094e-007 -4.88993e-009 
48.7228 81.7357 -131.512 4.77536 -17.9485 30.153 -13.1245 -32.3889 10.2624 -3.60515 43.2123 12.1912 11.4954 22.4385 -1.66579 0.0462048 0.000533403 0.662642 1.14494 9.06258 -4.45449 -1.83517 17.8971 -8.05419 15.9426 -0.118126 -10.1472 -2.38542e-015 -2.38542e-015 -0 -97.0806 -5.65589 -65.5546 -42.2933 58.8245 -71.4743 7.21815 19.4659 -2.26649 27.1063 -3.84718 -15.5939 99.5369 -60.1624 59.057 -19.2994 58.2873 159.799 -6.74153 20.6258 -20.4698 30.8554 -21.1396 -9.84871 -36.646 64.183 31.4096 -3.77585 21.0353 -1.26837 -1.41484e-009 1.56094e-007 -4.88993e-009 
48.7102 81.082 -132.456 4.19234 -18.6457 30.6806 -12.8644 -32.5707 10.819 -2.68836 43.3753 11.0804 11.9918 22.4822 -1.73566 0.0462048 0.000533403 0.662642 0.921669 9.22084 -4.94304 -2.21826 18.2594 -9.03511 16.6624 0.89476 -9.24685 1.98785e-015 1.59028e-015 -1.59028e-015 -87.731 0.196432 -71.3057 -32.9085 50.7988 -73.1082 7.21815 19.4659 -2.26649 27.7769 -4.16017 -16.3491 101.743 -62.9384 59.3077 -19.5102 59.5968 160.342 -10.4019 20.9625 -18.601 31.8903 -21.9636 -9.10131 -35.8636 65.0505 30.3277 -4.06429 22.2995 -1.34509 -1.41483e-009 1.56094e-007 -4.88994e-009 
48.6719 80.5911 -133.343 3.56932 -19.1659 31.1315 -12.7601 -32.8568 11.1495 -1.83776 43.4837 10.4227 12.8419 21.808 -1.84147 0.0462048 0.000533403 0.662642 0.76081 9.40312 -5.44643 -2.49847 18.6712 -10.0557 17.1324 1.87211 -8.17076 1.19271e-015 -7.95139e-016 -0 -76.4319 4.2474 -77.488 -26.4232 41.8461 -71.3502 7.21815 19.4659 -2.26649 28.3116 -4.52052 -17.291 103.145 -64.8913 59.2288 -18.936 61.213 159.521 -14.4085 21.1141 -15.7684 32.8732 -22.906 -8.05929 -34.5466 65.8806 28.8425 -4.52076 23.9186 -1.32224 -1.41483e-009 1.56094e-007 -4.88994e-009 
48.6351 80.3045 -134.123 2.90419 -19.4709 31.3337 -12.7534 -33.2431 11.2139 -1.21696 43.4765 10.3977 13.9734 20.4571 -1.95693 0.0462048 0.000533403 0.662642 0.676626 9.59986 -5.89476 -2.64132 19.1076 -10.9695 17.2033 2.67429 -6.96339 1.98785e-015 7.95139e-016 -1.59028e-015 -66.3532 5.68255 -82.3649 -22.8246 34.9007 -67.6336 7.21815 19.4659 -2.26649 28.6653 -4.90078 -18.3559 102.841 -65.844 58.1076 -17.4413 62.7446 157.377 -17.674 20.9818 -12.6062 33.7127 -23.8017 -6.97267 -32.801 66.528 26.9292 -5.31124 25.4814 -1.14175 -1.41483e-009 1.56094e-007 -4.88993e-009 
